<svg version="1.1" xmlns="http://www.w3.org/2000/svg" xmlns:xlink="http://www.w3.org/1999/xlink" width="32.87759" height="72.10677" viewBox="0,0,32.87759,72.10677"><g transform="translate(-225.56324,-163.93495)"><g data-paper-data="{&quot;isPaintingLayer&quot;:true}" fill-rule="nonzero" stroke-linejoin="miter" stroke-miterlimit="10" stroke-dasharray="" stroke-dashoffset="0" style="mix-blend-mode: normal"><path d="M232.43824,215.17584c0.397,0.52506 1.43467,0.29794 2.01852,0.35322c1.33669,0.12656 13.85374,-0.17317 14.83041,0.00686c0.77831,0.14346 1.89158,0.0152 2.40107,-0.61008c0.34496,-0.42336 0.22913,-1.07126 0.18082,-2.1742c-0.23487,-5.36157 -0.18082,-21.2008 -0.18082,-21.2008l-19.25,-1.625c0,0 -0.39683,14.73487 -0.2849,22.15595c0.01311,0.86959 -0.22699,2.41703 0.2849,3.09405z" fill="#e5e5e5" stroke="#ff0000" stroke-width="0" stroke-linecap="round"/><path d="M238.31324,210.17584c-2.02424,-2.29517 -2.125,-19.375 -2.125,-19.375l14.75,1.125l0.75,23.125c0,0 -11.76703,-3.05182 -13.375,-4.875z" fill="#ffffff" stroke="#001eff" stroke-width="0" stroke-linecap="round"/><path d="M232.43824,215.17584c0.397,0.52506 1.43467,0.29794 2.01852,0.35322c1.33669,0.12656 13.85374,-0.17317 14.83041,0.00686c0.77831,0.14346 1.89158,0.0152 2.40107,-0.61008c0.34496,-0.42336 0.22913,-1.07126 0.18082,-2.1742c-0.23487,-5.36157 -0.18082,-21.2008 -0.18082,-21.2008l-19.25,-1.625c0,0 -0.27183,15.48487 -0.1599,22.90595c0.01311,0.86959 -0.10199,1.41703 0.1599,2.34405z" fill="none" stroke="#000000" stroke-width="2.5" stroke-linecap="round"/><path d="M257.44084,180.30995c0,8.49138 -6.91219,15.375 -15.4388,15.375c-8.52661,0 -15.43879,-6.88362 -15.43879,-15.375c0,-8.49138 6.91218,-15.375 15.4388,-15.375c8.52661,0 15.4388,6.88362 15.4388,15.375z" fill="#e5e5e5" stroke="#000000" stroke-width="2" stroke-linecap="butt"/><path d="M256.56324,180.30995c0,7.87006 -4.98084,14.25 -11.125,14.25c-6.14416,0 -11.125,-6.37994 -11.125,-14.25c0,-7.87006 4.98084,-14.25 11.125,-14.25c6.14416,0 11.125,6.37994 11.125,14.25z" fill="#ffffff" stroke="#000000" stroke-width="0" stroke-linecap="butt"/><path d="M257.44084,180.43495c0,8.49138 -6.91219,15.375 -15.4388,15.375c-8.52661,0 -15.43879,-6.88362 -15.43879,-15.375c0,-8.49138 6.91218,-15.375 15.4388,-15.375c8.52661,0 15.4388,6.88362 15.4388,15.375z" fill="none" stroke="#000000" stroke-width="2" stroke-linecap="butt"/><path d="M235.56324,234.66672l0.125,-19" fill="none" stroke="#000000" stroke-width="2.5" stroke-linecap="round"/><path d="M248.31324,234.79172l-0.125,-19.25" fill="none" stroke="#000000" stroke-width="2.5" stroke-linecap="round"/></g></g></svg>