<svg version="1.1" xmlns="http://www.w3.org/2000/svg" xmlns:xlink="http://www.w3.org/1999/xlink" width="32.8776" height="32.875" viewBox="0,0,32.8776,32.875"><g transform="translate(-223.5612,-163.5625)"><g data-paper-data="{&quot;isPaintingLayer&quot;:true}" fill-rule="nonzero" stroke="#000000" stroke-linecap="butt" stroke-linejoin="miter" stroke-miterlimit="10" stroke-dasharray="" stroke-dashoffset="0" style="mix-blend-mode: normal"><path d="M255.43879,179.9375c0,8.49138 -6.91219,15.375 -15.4388,15.375c-8.52661,0 -15.43879,-6.88362 -15.43879,-15.375c0,-8.49138 6.91218,-15.375 15.4388,-15.375c8.52661,0 15.4388,6.88362 15.4388,15.375z" fill="#0a9800" stroke-width="2"/><path d="M254.56119,179.9375c0,7.87006 -4.98084,14.25 -11.125,14.25c-6.14416,0 -11.125,-6.37994 -11.125,-14.25c0,-7.87006 4.98084,-14.25 11.125,-14.25c6.14416,0 11.125,6.37994 11.125,14.25z" fill="#3cb334" stroke-width="0"/><path d="M255.43879,180.0625c0,8.49138 -6.91219,15.375 -15.4388,15.375c-8.52661,0 -15.43879,-6.88362 -15.43879,-15.375c0,-8.49138 6.91218,-15.375 15.4388,-15.375c8.52661,0 15.4388,6.88362 15.4388,15.375z" fill="none" stroke-width="2"/></g></g></svg>