<svg version="1.1" xmlns="http://www.w3.org/2000/svg" xmlns:xlink="http://www.w3.org/1999/xlink" width="21.92943" height="28.29647" viewBox="0,0,21.92943,28.29647"><g transform="translate(-229.17066,-165.84768)"><g data-paper-data="{&quot;isPaintingLayer&quot;:true}" fill-rule="nonzero" stroke-linecap="round" stroke-linejoin="miter" stroke-miterlimit="10" stroke-dasharray="" stroke-dashoffset="0" style="mix-blend-mode: normal"><path d="M230.13557,189.3868c-0.11193,-7.42108 0.2849,-22.15595 0.2849,-22.15595l19.25,1.625c0,0 -0.05405,15.83923 0.18082,21.2008c0.04831,1.10294 0.16414,1.75084 -0.18082,2.1742c-0.50949,0.62528 -1.62276,0.75354 -2.40107,0.61008c-0.97667,-0.18003 -13.49372,0.1197 -14.83041,-0.00686c-0.58385,-0.05528 -1.62152,0.17184 -2.01852,-0.35322c-0.51189,-0.67702 -0.27179,-2.22446 -0.2849,-3.09405z" fill="#0a9a00" stroke="#ff0000" stroke-width="0"/><path d="M236.29547,187.48085c-2.02424,-2.29517 -2.125,-19.375 -2.125,-19.375l14.75,-0.75l0.75,25c0,0 -11.76703,-3.05182 -13.375,-4.875z" fill="#3cb334" stroke="#001eff" stroke-width="0"/><path d="M230.26057,190.1368c-0.11193,-7.42108 0.1599,-22.90595 0.1599,-22.90595l19.125,-0.125c0,0 0.07095,17.58923 0.30582,22.9508c0.04831,1.10294 0.16414,1.75084 -0.18082,2.1742c-0.50949,0.62528 -1.62276,0.75354 -2.40107,0.61008c-0.97667,-0.18003 -13.49372,0.1197 -14.83041,-0.00686c-0.58385,-0.05528 -1.62152,0.17184 -2.01852,-0.35322c-0.26189,-0.92702 -0.14679,-1.47446 -0.1599,-2.34405z" fill="none" stroke="#000000" stroke-width="2.5"/></g></g></svg>