<svg version="1.1" xmlns="http://www.w3.org/2000/svg" xmlns:xlink="http://www.w3.org/1999/xlink" width="43.74774" height="22.75005" viewBox="0,0,43.74774,22.75005"><g transform="translate(-220.04967,-150.82232)"><g data-paper-data="{&quot;isPaintingLayer&quot;:true}" fill-rule="nonzero" stroke="#000000" stroke-linejoin="miter" stroke-miterlimit="10" stroke-dasharray="" stroke-dashoffset="0" style="mix-blend-mode: normal"><path d="" fill="#e5e5e5" stroke-width="2" stroke-linecap="butt"/><path d="" fill="#ffffff" stroke-width="0" stroke-linecap="butt"/><path d="" fill="none" stroke-width="2" stroke-linecap="butt"/><path d="M262.79742,169.62043c0,1.75579 -3.60644,2.7069 -9.60671,2.95194c-3.46621,0.14156 -7.92783,-0.14909 -12.4473,-0.14909c-7.08129,0 -12.50826,0.8836 -16.603,-0.26962c-3.0426,-0.85691 -3.09073,-1.20485 -3.09073,-2.38571c0,-2.77006 7.35068,-7.37593 19.69373,-7.37593c12.34304,0 22.05402,4.45835 22.05402,7.22841z" fill="#825e34" stroke-width="2" stroke-linecap="butt"/><path d="M231.93856,166.60615c-0.44967,2.84792 3.53758,2.20877 6.55556,2.66666c3.01798,0.4579 5.83036,0.07471 9.55555,-0.22222c3.7252,-0.29694 4.24102,0.70141 5.77778,-1c1.53676,-1.70141 -0.95392,-2.09411 -2.66666,-2.44444c-1.71275,-0.35033 -7.31621,-0.79923 -12,-0.55556c-4.68379,0.24367 -6.77255,-1.29236 -7.22223,1.55556z" fill="#6c4e2b" stroke-width="0" stroke-linecap="round"/><path d="M232.93857,166.33814c0,0 0.94471,-4.76477 2.44746,-7.41646c1.50275,-2.65168 2.37519,-3.43845 4.54633,-4.92444c2.17114,-1.48599 3.40255,-1.88572 5.82637,-2.17492c2.42382,-0.2892 4.21029,-0.37947 6.55999,0.69705c2.34971,1.07651 2.90573,3.63965 2.90573,3.63965c0,0 -2.51792,-0.37616 -4.25277,0.206c-1.73485,0.58216 -1.23762,0.84098 -1.62388,1.76602c-0.38626,0.92504 -0.75792,2.25296 -1.05573,4.65127c-0.29782,2.39831 -0.05688,3.75903 -0.05688,3.75903c0,0 -3.47067,0.43613 -5.71073,0.40638c-2.24006,-0.02975 -9.58587,-0.60957 -9.58587,-0.60957z" fill="#6c4e2b" stroke-width="2" stroke-linecap="round"/></g></g></svg>