<svg version="1.1" xmlns="http://www.w3.org/2000/svg" xmlns:xlink="http://www.w3.org/1999/xlink" width="28.79769" height="41.52697" viewBox="0,0,28.79769,41.52697"><g transform="translate(-225.88417,-165.37411)"><g data-paper-data="{&quot;isPaintingLayer&quot;:true}" fill-rule="nonzero" stroke-linecap="round" stroke-linejoin="miter" stroke-miterlimit="10" stroke-dasharray="" stroke-dashoffset="0" style="mix-blend-mode: normal"><path d="M250.49413,166.62411c1.09461,1.27479 0.8702,11.26289 1.22222,21.77787c0.33676,10.05909 0.18672,3.11407 0.27213,9.17758c0.0208,1.47641 1.22222,5.78712 1.22222,5.78712c0,0 -3.1881,1.73472 -5.33333,2.2844c-2.14523,0.54968 -2.64873,0.16904 -4.31146,-0.29844c-1.66273,-0.46748 -2.54888,-2.02513 -4.35521,-2.13825c-1.80633,-0.11312 -3.88719,1.46217 -6.44013,1.46217c-2.55294,0 -5.55987,-1.46217 -5.55987,-1.46217l0.33333,-3.50274c0,0 0.1527,-5.82307 0.61676,-13.59408c0.46406,-7.77101 0.46851,-16.72931 1.88889,-18.88431c1.35182,-2.05099 19.41477,-1.80832 20.44445,-0.60915z" fill="#825e34" stroke="#000000" stroke-width="2.5"/><path d="M238.52354,201.93738l0.09173,-13.83166l-0.62612,-5.59543l-0.73228,3.23542l-1.41653,-9.20465l0.71694,15.27147l-1.40874,11.03319z" fill="#73532e" stroke="#73532e" stroke-width="0"/><path d="M243.17973,203.79367l0.33939,-7.6l0.86667,8.01818z" fill="#73532e" stroke="#73532e" stroke-width="0"/><path d="M228.57973,202.327l0.33939,-7.6l0.86667,8.01818z" fill="#73532e" stroke="#73532e" stroke-width="0"/><path d="M245.25245,167.127c0.70335,0.06407 1.3403,0.17147 1.3403,0.17147l-0.55248,2.47129l-0.63883,-1.60974l-0.41769,2.87552l0.83445,22.00342l-1.0324,-13.96046l-0.68159,-10.57296l-0.6578,-1.49371c0,0 1.1027,0.05107 1.80606,0.11515z" data-paper-data="{&quot;index&quot;:null}" fill="#73532e" stroke="#73532e" stroke-width="0"/><path d="M246.0464,204.66033l-0.96278,-0.23783l0.81315,-1.4817l0.28902,-1.88047l0.93333,3.48485z" fill="#73532e" stroke="#73532e" stroke-width="0"/><path d="M233.65245,167.26033c1.01616,-0.14489 2.60751,-0.25025 4.28253,-0.28785c1.67501,-0.0376 2.07685,0.14509 2.07685,0.14509l-0.95538,2.70477l-0.9638,-2.04001l-1.2583,-0.39423l-3.44031,1.4388l-1.09069,6.6121l-0.31756,8.57285l-0.6817,-5.76377l0.7512,-8.94541l-0.94222,-1.35749c0,0 1.52323,-0.53996 2.53939,-0.68485z" data-paper-data="{&quot;index&quot;:null}" fill="#73532e" stroke="#73532e" stroke-width="0"/></g></g></svg>