<svg version="1.1" xmlns="http://www.w3.org/2000/svg" xmlns:xlink="http://www.w3.org/1999/xlink" width="37.68328" height="29.75007" viewBox="0,0,37.68328,29.75007"><g transform="translate(-220.45134,-155.69254)"><g data-paper-data="{&quot;isPaintingLayer&quot;:true}" fill-rule="nonzero" stroke-linecap="round" stroke-linejoin="miter" stroke-miterlimit="10" stroke-dasharray="" stroke-dashoffset="0" style="mix-blend-mode: normal"><path d="M227.76679,158.07803c0,0 3.49422,-1.01337 7.66491,-1.25267c4.17069,-0.2393 7.78884,-0.17605 10.7026,0.1988c2.91375,0.37485 7.22656,2.10775 7.22656,2.10775l3.91439,24.08854c0,0 -6.39227,1.10561 -11.44206,1.35498c-5.04979,0.24938 -8.64836,0.28482 -12.94759,-0.15055c-4.29923,-0.43536 -10.83984,-2.2583 -10.83984,-2.2583z" fill="#c1c1c1" stroke="#000000" stroke-width="1.5"/><path d="M231.22952,158.22859c0,0 -0.87461,5.03159 -1.20442,8.28044c-0.32981,3.24885 -0.47061,3.21483 -0.16822,5.24082c0.30238,2.02599 0.43817,3.26472 1.67376,4.84625c1.23558,1.58154 2.70359,2.48858 4.81771,3.46273c2.11411,0.97415 10.53874,3.61328 10.53874,3.61328l-6.47379,0.45166l-10.23764,-0.45166l-7.37711,-1.65609l5.72103,-23.48633z" fill="#acacac" stroke="#acacac" stroke-width="2"/><path d="M227.36762,157.94521c0,0 3.49422,-1.01337 7.66491,-1.25267c4.17069,-0.2393 7.78884,-0.17605 10.7026,0.1988c2.91375,0.37485 7.22656,2.10775 7.22656,2.10775l3.91439,24.08854c0,0 -6.39227,1.10561 -11.44206,1.35498c-5.04979,0.24938 -8.64836,0.28482 -12.94759,-0.15055c-4.29923,-0.43536 -10.83984,-2.2583 -10.83984,-2.2583z" fill="none" stroke="#000000" stroke-width="2"/></g></g></svg>